<svg width="64" height="64" viewBox="0 0 64 64" fill="none" xmlns="http://www.w3.org/2000/svg">
<g clip-path="url(#clip0_1_10891)">
<mask id="mask0_1_10891" style="mask-type:luminance" maskUnits="userSpaceOnUse" x="0" y="0" width="64" height="64">
<path d="M0 7.62939e-06H64V64H0V7.62939e-06Z" fill="white"/>
</mask>
<g mask="url(#mask0_1_10891)">
<path d="M51.4907 16.9956V11.99C51.4907 9.23173 49.2546 6.99561 46.4963 6.99561H7.49072C4.72935 6.99561 2.49072 9.23423 2.49072 11.9956C2.49072 14.757 4.72935 16.9956 7.49072 16.9956H56.4963C59.2546 16.9956 61.4907 19.2317 61.4907 21.99V29.4956" stroke="black" stroke-width="4" stroke-miterlimit="10"/>
<path d="M61.4907 44.4956V52.0012C61.4907 54.7595 59.2546 56.9956 56.4963 56.9956H7.49072C4.72935 56.9956 2.49072 54.7571 2.49072 51.9956V11.9956" stroke="black" stroke-width="4" stroke-miterlimit="10"/>
<path d="M61.4907 44.4956H48.9907C44.8486 44.4956 41.4907 41.1377 41.4907 36.9956C41.4907 32.8535 44.8486 29.4956 48.9907 29.4956H61.4907V44.4956Z" stroke="black" stroke-width="4" stroke-miterlimit="10"/>
</g>
</g>
<defs>
<clipPath id="clip0_1_10891">
<rect width="64" height="64" fill="white"/>
</clipPath>
</defs>
</svg>
