<svg width="24" height="24" viewBox="0 0 24 24" fill="none" xmlns="http://www.w3.org/2000/svg">
<path d="M20.3053 18.6102C21.2413 18.6102 22.0002 19.369 22.0002 20.3051C22.0002 21.2412 21.2413 22 20.3053 22C19.3692 22 18.6104 21.2412 18.6104 20.3051C18.6104 19.369 19.3692 18.6102 20.3053 18.6102Z" stroke="black" stroke-width="2" stroke-miterlimit="10" stroke-linecap="round" stroke-linejoin="round"/>
<path d="M12.0001 18.6102C12.9362 18.6102 13.695 19.369 13.695 20.3051C13.695 21.2412 12.9362 22 12.0001 22C11.064 22 10.3052 21.2412 10.3052 20.3051C10.3052 19.369 11.064 18.6102 12.0001 18.6102Z" stroke="black" stroke-width="2" stroke-miterlimit="10" stroke-linecap="round" stroke-linejoin="round"/>
<path d="M3.69492 18.6102C4.63099 18.6102 5.38983 19.369 5.38983 20.3051C5.38983 21.2412 4.63099 22 3.69492 22C2.75884 22 2 21.2412 2 20.3051C2 19.369 2.75884 18.6102 3.69492 18.6102Z" stroke="black" stroke-width="2" stroke-miterlimit="10" stroke-linecap="round" stroke-linejoin="round"/>
<path d="M3.69492 2.00006C4.63099 2.00006 5.38983 2.7589 5.38983 3.69498C5.38983 4.63105 4.63099 5.38989 3.69492 5.38989C2.75884 5.38989 2 4.63105 2 3.69498C2 2.7589 2.75884 2.00006 3.69492 2.00006Z" stroke="black" stroke-width="2" stroke-miterlimit="10" stroke-linecap="round" stroke-linejoin="round"/>
<path d="M12.0001 2.00006C12.9362 2.00006 13.695 2.7589 13.695 3.69498C13.695 4.63105 12.9362 5.38989 12.0001 5.38989C11.064 5.38989 10.3052 4.63105 10.3052 3.69498C10.3052 2.7589 11.064 2.00006 12.0001 2.00006Z" stroke="black" stroke-width="2" stroke-miterlimit="10" stroke-linecap="round" stroke-linejoin="round"/>
<path d="M20.305 18.6101V13.8643C20.305 12.9283 19.5461 12.1694 18.6101 12.1694H3.69482V5.38977" stroke="black" stroke-width="2" stroke-miterlimit="10" stroke-linecap="round" stroke-linejoin="round"/>
<path d="M3.69482 12.1694V18.6101" stroke="black" stroke-width="2" stroke-miterlimit="10" stroke-linecap="round" stroke-linejoin="round"/>
<path d="M12 18.6101V5.38977" stroke="black" stroke-width="2" stroke-miterlimit="10" stroke-linecap="round" stroke-linejoin="round"/>
<path d="M20.3053 2.00006C21.2413 2.00006 22.0002 2.7589 22.0002 3.69498C22.0002 4.63105 21.2413 5.38989 20.3053 5.38989C19.3692 5.38989 18.6104 4.63105 18.6104 3.69498C18.6104 2.7589 19.3692 2.00006 20.3053 2.00006Z" stroke="black" stroke-width="2" stroke-miterlimit="10" stroke-linecap="round" stroke-linejoin="round"/>
<path d="M20.3052 8.77954V5.38971" stroke="black" stroke-width="2" stroke-miterlimit="10" stroke-linecap="round" stroke-linejoin="round"/>
</svg>
