<svg width="32" height="32" viewBox="0 0 32 32" fill="none" xmlns="http://www.w3.org/2000/svg">
<rect width="32" height="32" rx="16" fill="#5937E0"/>
<path d="M15.752 21.66C14.696 21.66 13.7947 21.4413 13.048 21.004C12.312 20.556 11.8053 19.916 11.528 19.084L13.608 18.172C13.6827 18.556 13.8053 18.876 13.976 19.132C14.1467 19.3773 14.376 19.564 14.664 19.692C14.9627 19.82 15.3147 19.884 15.72 19.884C16.0827 19.884 16.3867 19.82 16.632 19.692C16.888 19.564 17.0853 19.3827 17.224 19.148C17.3627 18.9133 17.432 18.6467 17.432 18.348C17.432 18.028 17.368 17.7667 17.24 17.564C17.1227 17.3613 16.9413 17.2173 16.696 17.132C16.4507 17.036 16.1413 16.988 15.768 16.988C15.6293 16.988 15.496 16.9933 15.368 17.004C15.2507 17.004 15.1173 17.0147 14.968 17.036V15.42C15.0533 15.4307 15.1387 15.4413 15.224 15.452C15.32 15.452 15.416 15.452 15.512 15.452C16.1093 15.452 16.536 15.3347 16.792 15.1C17.0587 14.8547 17.192 14.4653 17.192 13.932C17.192 13.4947 17.0587 13.1587 16.792 12.924C16.536 12.6787 16.168 12.556 15.688 12.556C15.176 12.556 14.7707 12.684 14.472 12.94C14.1733 13.1853 13.9653 13.564 13.848 14.076L11.88 13.34C12.008 12.8067 12.2533 12.348 12.616 11.964C12.9893 11.58 13.448 11.2867 13.992 11.084C14.536 10.8707 15.1387 10.764 15.8 10.764C16.5893 10.764 17.2453 10.8867 17.768 11.132C18.3013 11.3773 18.7013 11.7133 18.968 12.14C19.2453 12.5667 19.384 13.0573 19.384 13.612C19.384 14.0493 19.3147 14.4227 19.176 14.732C19.048 15.0307 18.8773 15.2867 18.664 15.5C18.4613 15.7027 18.248 15.8573 18.024 15.964C17.8 16.0707 17.592 16.1347 17.4 16.156V16.204C17.6453 16.2147 17.896 16.268 18.152 16.364C18.408 16.4493 18.6427 16.5827 18.856 16.764C19.08 16.9453 19.2613 17.18 19.4 17.468C19.5387 17.7453 19.608 18.076 19.608 18.46C19.608 19.1 19.4373 19.6653 19.096 20.156C18.7653 20.636 18.312 21.0093 17.736 21.276C17.16 21.532 16.4987 21.66 15.752 21.66Z" fill="white"/>
</svg>
