<svg width="32" height="32" viewBox="0 0 32 32" fill="none" xmlns="http://www.w3.org/2000/svg">
<rect width="32" height="32" rx="16" fill="#5937E0"/>
<path d="M12.04 21.5V20.012C13 19.3613 13.8107 18.7747 14.472 18.252C15.144 17.7187 15.6827 17.228 16.088 16.78C16.504 16.3213 16.8027 15.8893 16.984 15.484C17.176 15.0787 17.272 14.6733 17.272 14.268C17.272 13.7773 17.1227 13.3773 16.824 13.068C16.5253 12.748 16.104 12.588 15.56 12.588C14.9627 12.588 14.4933 12.7907 14.152 13.196C13.8213 13.6013 13.64 14.1773 13.608 14.924L11.704 14.204C11.7573 13.4787 11.9493 12.8653 12.28 12.364C12.6213 11.852 13.08 11.4627 13.656 11.196C14.2427 10.9187 14.9147 10.78 15.672 10.78C16.3227 10.78 16.8827 10.8707 17.352 11.052C17.832 11.2333 18.2267 11.484 18.536 11.804C18.856 12.1133 19.096 12.4707 19.256 12.876C19.416 13.2813 19.496 13.7027 19.496 14.14C19.496 14.8227 19.3253 15.468 18.984 16.076C18.6533 16.684 18.1413 17.2867 17.448 17.884C16.7547 18.4813 15.8747 19.1107 14.808 19.772V19.788C14.968 19.7773 15.16 19.7667 15.384 19.756C15.6187 19.7453 15.8587 19.74 16.104 19.74C16.3493 19.7293 16.5627 19.724 16.744 19.724H19.656V21.5H12.04Z" fill="white"/>
</svg>
