<svg width="32" height="32" viewBox="0 0 32 32" fill="none" xmlns="http://www.w3.org/2000/svg">
<rect width="32" height="32" rx="16" fill="#5937E0"/>
<path d="M16.356 21.5V19.02H11.204V17.58C11.2573 17.4733 11.332 17.3453 11.428 17.196C11.5347 17.036 11.652 16.8547 11.78 16.652L15.716 10.94H18.356V17.42H20.068V19.02H18.356V21.5H16.356ZM13.092 17.42H16.372V13.932C16.372 13.708 16.3773 13.468 16.388 13.212C16.3987 12.956 16.4093 12.7053 16.42 12.46H16.388C16.2707 12.6947 16.1267 12.9507 15.956 13.228C15.796 13.4947 15.6467 13.7347 15.508 13.948L13.3 17.116C13.268 17.1693 13.2307 17.2227 13.188 17.276C13.156 17.3187 13.124 17.3667 13.092 17.42Z" fill="white"/>
</svg>
